<svg width="768" height="101" viewBox="0 0 768 101" fill="none" xmlns="http://www.w3.org/2000/svg">
<path d="M73.8535 66.5846L67.0727 54.1462C48.0327 93.0945 37.6251 98.1719 29.082 99.4732C41.9158 99.1543 65.9745 77.0202 73.8535 66.5846Z" fill="url(#paint0_linear_4_419)"/>
<path d="M108.996 86.9193C109.034 86.9068 109.059 86.9068 109.059 86.9068C109.059 86.9068 109.046 86.9193 108.996 86.9193Z" fill="url(#paint1_linear_4_419)"/>
<path d="M83.0985 54.8336L79.1525 47.2812L76.1133 41.298C77.2115 40.2774 85.2438 29.1657 95.5109 18.3985C99.8654 14.3161 104.744 10.0551 110.439 8.00121C111.946 7.45264 113.58 7.05716 115.202 7.10819C120.17 7.26128 124.55 10.6547 127.155 14.6733C129.811 18.7557 130.973 23.68 131.407 28.4768C132.671 42.3186 130.232 58.7373 129.198 67.4506C129.121 60.5361 129.645 53.6344 129.926 46.7199C130.13 41.6552 130.092 36.5012 128.815 31.5641C128.176 29.0764 127.308 26.6015 125.891 24.4455C124.358 22.0981 122.392 20.4652 119.621 19.8018C110.477 17.633 94.3999 40.9663 83.0985 54.8336Z" fill="url(#paint2_linear_4_419)"/>
<path d="M130.22 40.7356C130.067 37.2783 129.658 33.8083 128.688 30.4786C127.423 26.1539 125.099 20.8595 120.183 19.839C117.999 19.3797 115.713 19.9155 113.785 20.9744C113.632 21.0637 114.653 25.044 114.73 25.3884C115.279 27.9909 115.624 30.619 115.854 33.2725C116.148 36.7042 116.262 40.1742 116.288 43.6315C116.275 43.8229 116.262 44.0142 116.262 44.2056C116.352 64.2092 114.283 76.2776 111.448 83.0773C110.184 86.1008 109.162 86.8025 108.996 86.9046C108.818 86.9046 108.307 86.8408 107.285 86.2922C105.561 85.3609 103.326 83.5111 100.683 80.6152C98.1036 77.783 95.4347 74.262 92.7785 70.3582C87.4534 62.5635 82.5115 53.646 78.8465 46.604C77.0331 43.0957 75.5518 40.0977 74.5302 37.9672C74.0194 36.9083 73.6236 36.0664 73.3554 35.4923C73.2277 35.2116 73.1255 34.9947 73.0617 34.8416L72.9851 34.6886L72.9595 34.6375L66.0254 19.3542L60.0363 35.0458V35.0585L60.0108 35.1096C59.998 35.1606 59.9597 35.2371 59.9214 35.3392C59.8448 35.5433 59.7171 35.8495 59.5638 36.245C59.2446 37.0359 58.7721 38.2096 58.1719 39.6512C56.9587 42.5599 55.1965 46.5912 53.0511 51.1073C48.6838 60.2799 42.9501 70.894 36.9993 78.1402C33.9856 81.8144 31.3805 84.0341 29.3756 85.0165C27.7411 85.8202 27.1026 85.5905 26.4513 85.1696C25.1871 84.3531 22.9013 81.8654 20.4367 75.3464C18.0359 69.0059 15.7884 59.7313 13.9495 46.655C13.4132 42.8278 9.86312 40.1615 6.03213 40.6973C2.20114 41.2331 -0.467782 44.7797 0.0685566 48.6069C1.98405 62.1935 4.41035 72.6035 7.3219 80.309C10.1696 87.8231 13.8218 93.7042 18.8532 96.9446C24.4847 100.58 30.4866 100.083 35.5308 97.608C40.2046 95.3244 44.342 91.2931 47.841 87.0321C54.9156 78.4209 61.2495 66.5182 65.7189 57.1288C66.1787 56.1592 66.6256 55.2152 67.047 54.2967C70.7631 61.377 75.7306 70.2689 81.1706 78.255C84.0438 82.4905 87.1342 86.5856 90.3011 90.0556C93.4042 93.4746 96.8904 96.6384 100.632 98.6413C104.425 100.683 109.341 101.958 114.36 99.8533C119.174 97.8504 122.29 93.4619 124.371 88.4737C128.228 79.2501 130.284 65.3318 130.284 45.5323C130.297 43.9377 130.284 42.3302 130.22 40.7356Z" fill="url(#paint3_linear_4_419)"/>
<path d="M130.22 40.7356C130.067 37.2783 129.658 33.8083 128.688 30.4786C127.423 26.1539 125.099 20.8595 120.183 19.839C117.999 19.3797 115.713 19.9155 113.785 20.9744C113.632 21.0637 114.653 25.044 114.73 25.3884C115.279 27.9909 115.624 30.619 115.854 33.2725C116.148 36.7042 116.262 40.1742 116.288 43.6315C116.275 43.8228 116.262 44.0142 116.262 44.2056C116.352 64.2092 114.283 76.2776 111.448 83.0773C110.184 86.1008 109.162 86.8025 108.996 86.9046C108.818 86.9046 108.307 86.8408 107.285 86.2922C105.561 85.3609 103.326 83.5111 100.683 80.6152C98.1036 77.783 95.4347 74.262 92.7785 70.3582C87.4534 62.5635 82.5115 53.646 78.8465 46.604C77.0331 43.0957 75.5518 40.0977 74.5302 37.9672C74.0194 36.9083 73.6236 36.0664 73.3554 35.4923C73.2277 35.2116 73.1255 34.9947 73.0617 34.8416L72.9851 34.6886L72.9595 34.6375L66.0254 19.3542L60.0363 35.0458V35.0585L60.0108 35.1096C59.998 35.1606 59.9597 35.2371 59.9214 35.3392C59.8448 35.5433 59.7171 35.8495 59.5638 36.245C59.2446 37.0359 58.7721 38.2096 58.1719 39.6512C56.9587 42.5599 55.1965 46.5912 53.0511 51.1073C48.6838 60.2799 42.9501 70.894 36.9993 78.1402C33.9856 81.8144 31.3805 84.0341 29.3756 85.0165C27.7411 85.8202 27.1026 85.5905 26.4513 85.1695C25.1871 84.3531 22.9013 81.8654 20.4367 75.3464C18.0359 69.0059 15.7884 59.7313 13.9495 46.655C13.4132 42.8278 9.86312 40.1615 6.03213 40.6973C2.20114 41.2331 -0.467782 44.7797 0.0685566 48.6069C1.98405 62.1935 4.41035 72.6035 7.3219 80.309C10.1696 87.8231 13.8218 93.7042 18.8532 96.9446C24.4847 100.58 30.4866 100.083 35.5308 97.608C40.2046 95.3244 44.342 91.2931 47.841 87.0321C54.9156 78.4209 61.2495 66.5182 65.7189 57.1288C66.1787 56.1592 66.6256 55.2152 67.047 54.2967C70.7631 61.377 75.7306 70.2689 81.1706 78.255C84.0438 82.4905 87.1342 86.5856 90.3011 90.0556C93.4042 93.4746 96.8904 96.6384 100.632 98.6413C104.425 100.683 109.341 101.958 114.36 99.8533C119.174 97.8504 122.29 93.4618 124.371 88.4737C128.228 79.2501 130.284 65.3318 130.284 45.5323C130.297 43.9377 130.284 42.3302 130.22 40.7356Z" fill="url(#paint4_linear_4_419)"/>
<path d="M139.246 68.9165C139.246 48.3595 155.011 32.1951 176.928 32.1951C195.762 32.1951 209.167 46.3154 209.167 64.6688C209.167 85.0808 193.808 100.709 172.05 100.709C153.346 100.709 139.246 88.3717 139.246 68.9165ZM193.677 72.7582C193.677 56.3184 184.326 40.1541 171.355 40.1541C160.193 40.1541 154.881 49.8817 154.881 61.262C154.881 78.2526 164.088 92.9093 177.203 92.9093C187.945 92.9093 193.677 84.1385 193.677 72.7727V72.7582Z" fill="#000423"/>
<path d="M287.41 84.3987C289.046 92.8941 294.533 91.7923 294.533 96.3154C294.533 98.7799 292.477 99.3308 288.916 99.3308H272.094C268.533 99.3308 266.217 98.6494 266.217 96.1849C266.217 91.9372 273.47 92.6186 271.834 83.7173L267.723 61.5222C265.942 51.7946 263.481 42.1974 252.667 42.3424C244.589 42.4729 236.656 49.736 236.656 63.9867V80.8469C236.656 93.7204 243.084 90.9804 243.084 96.3299C243.084 98.7944 241.028 99.3453 237.467 99.3453H220.226C216.809 99.3453 214.479 98.6639 214.479 96.1994C214.479 90.9949 221.181 93.7349 221.181 80.8614V53.9981C221.181 49.7505 220.081 46.7351 216.939 44.6765C215.564 43.7196 214.479 42.7628 214.479 41.1102C214.479 39.327 215.304 38.3702 218.575 36.8625C223.497 34.6734 230.07 32.6148 232.125 32.4843C234.036 32.4843 235.006 33.4411 235.006 36.0506L234.876 46.1842C240.217 36.8625 249.236 32.2089 258.27 32.2089C272.905 32.2089 279.333 41.1102 282.894 60.7103L287.41 84.4132V84.3987Z" fill="#000423"/>
<path d="M360.067 24.3803L359.936 80.0059C359.936 90.2844 368.014 87.5444 368.014 91.6471C368.014 93.2853 366.784 94.5321 364.048 96.0253C360.212 98.0839 353.784 100.548 350.223 100.548C346.662 100.548 345.156 98.2144 345.026 93.0099L344.895 88.7622C340.379 95.3439 332.721 100.824 321.777 100.679C304.81 100.403 293.461 87.2545 293.461 69.5679C293.461 46.9669 310.833 32.1652 327.799 32.1652C334.096 32.1652 340.118 33.9484 344.62 37.0943V24.4817C344.62 13.7973 337.918 15.4355 337.918 11.1878C337.918 9.54966 338.743 8.72332 342.029 7.21561C347.892 4.51914 355.145 2.1851 357.331 2.04012C359.242 1.90965 360.212 2.99694 360.212 5.60643L360.081 24.3803H360.067ZM344.476 73.9751V66.712C344.201 61.0871 343.375 54.6504 340.914 50.1272C337.353 43.415 332.026 39.8487 325.179 39.8487C314.64 39.8487 308.357 49.0255 308.357 62.1889C308.357 80.5568 318.346 90.2844 328.059 90.2844C337.773 90.2844 343.651 82.195 344.476 73.9751Z" fill="#000423"/>
<path d="M432.189 83.0367C429.453 90.1693 418.639 100.709 400.862 100.709C381.565 100.709 368.58 87.0089 368.58 68.641C368.58 47.8086 384.041 32.1951 403.613 32.1951C419.349 32.1951 429.062 41.5168 431.248 53.158C431.654 55.4921 430.973 57.5362 428.107 58.638C413.746 64.6688 401.022 69.1919 385.836 74.5269C388.572 81.645 395.55 89.459 407.319 89.459C416.077 89.459 423.185 85.0808 428.121 80.0068C430.727 77.3973 433.593 79.3254 432.233 83.0222L432.189 83.0367ZM383.201 59.1889C383.201 62.4797 383.476 65.4951 384.157 67.6842C393.74 64.5383 403.034 61.3779 411.662 57.8116C413.848 56.9853 415.223 55.753 414.528 52.7376C412.892 44.5177 405.64 39.1683 398.517 39.8641C388.398 40.415 383.187 49.8672 383.187 59.1889H383.201Z" fill="#000423"/>
<path d="M488.011 42.8788C488.011 47.257 485.405 50.8233 481.988 50.8233C475.691 50.9537 476.111 44.3865 469.539 44.3865C464.067 44.3865 459 51.5046 459 62.479V80.8469C459 93.7204 465.428 90.9804 465.428 96.3299C465.428 98.7944 463.372 99.3453 459.811 99.3453H442.569C439.153 99.3453 436.822 98.6639 436.822 96.1994C436.822 90.9949 443.525 93.7349 443.525 80.8614V53.9981C443.525 49.7505 442.425 46.7351 439.283 44.6765C437.908 43.7196 436.822 42.7628 436.822 41.1102C436.822 39.327 437.647 38.3702 440.919 36.8625C445.841 34.6734 452.413 32.6148 454.469 32.4843C456.38 32.4843 457.35 33.4411 457.35 36.0506L457.219 45.5028C462.011 37.2829 469.394 32.2089 476.647 32.2089C484.305 32.2089 487.996 37.1379 487.996 42.8933L488.011 42.8788Z" fill="#000423"/>
<path d="M487.33 68.6412C487.33 47.8087 502.921 32.3258 522.493 32.3258C539.46 32.3258 549.579 43.4306 549.579 54.6659C549.579 60.2908 546.162 63.1612 541.92 63.1612C536.999 63.1612 535.073 59.5949 533.843 55.3473C531.382 46.446 526.995 40.0093 518.527 39.8643C508.263 39.8643 502.241 48.4901 502.241 60.4213C502.241 77.8179 511.954 89.4736 526.46 89.4736C535.218 89.4736 540.82 85.2259 545.612 80.5723C548.218 78.1078 551.229 79.746 549.854 83.4428C546.973 90.7059 537.679 100.709 519.757 100.709C499.649 100.709 487.33 86.0523 487.33 68.6412Z" fill="#000423"/>
<path d="M605.819 42.8788C605.819 47.257 603.214 50.8233 599.797 50.8233C593.5 50.9537 593.92 44.3865 587.347 44.3865C581.875 44.3865 576.809 51.5046 576.809 62.479V80.8469C576.809 93.7204 583.236 90.9804 583.236 96.3299C583.236 98.7944 581.181 99.3453 577.619 99.3453H560.378C556.962 99.3453 554.631 98.6639 554.631 96.1994C554.631 90.9949 561.333 93.7349 561.333 80.8614V53.9981C561.333 49.7505 560.233 46.7351 557.092 44.6765C555.717 43.7196 554.631 42.7628 554.631 41.1102C554.631 39.327 555.456 38.3702 558.728 36.8625C563.65 34.6734 570.222 32.6148 572.278 32.4843C574.188 32.4843 575.158 33.4411 575.158 36.0506L575.028 45.5028C579.82 37.2829 587.203 32.2089 594.455 32.2089C602.113 32.2089 605.805 37.1379 605.805 42.8933L605.819 42.8788Z" fill="#000423"/>
<path d="M676.421 91.7931C676.421 95.7654 669.994 100.288 663.696 100.288C657.399 100.288 654.663 96.7222 653.158 89.8795C647.005 97.1426 637.567 100.564 629.619 100.564C613.608 100.564 603.895 91.6627 603.895 80.0069C603.895 66.9885 615.519 57.6668 633.586 57.6668C638.233 57.6668 641.519 58.0727 646.441 59.044C643.849 49.3164 641.519 42.0534 630.575 42.0534C623.597 42.0534 618.255 44.5179 612.928 47.5333C610.322 49.1715 607.731 47.1274 609.642 43.967C613.058 38.7625 623.192 32.3258 635.916 32.3258C652.202 32.3258 657.674 43.0102 660.541 54.6659L667.113 82.486C668.488 88.6473 670.949 89.8795 673.815 89.8795C675.321 89.749 676.421 90.2854 676.421 91.7931ZM650.972 80.2824C650.566 77.5424 649.466 73.9761 648.105 68.6412C647.425 65.3503 640.303 64.118 635.931 64.118C624.987 64.118 618.964 69.4675 619.109 77.8179C619.384 86.1827 625.262 92.4745 634.845 92.4745C643.458 92.4745 652.086 86.0378 650.986 80.2824H650.972Z" fill="#000423"/>
<path d="M695.587 21.7851C695.587 26.4387 696.818 33.5713 699.959 33.5713H714.189C716.65 33.5713 719.256 33.9773 718.561 37.674C717.736 41.5158 715.42 41.9217 712.944 41.7912L699.945 41.3853V80.8466C699.945 95.0973 709.108 90.8497 709.108 96.3296C709.108 98.7941 707.053 99.345 703.491 99.345H683.789C680.228 99.345 677.912 98.6636 677.912 96.1991C677.912 91.5455 684.614 93.8651 684.614 80.8611V40.8489L680.778 40.7185C678.172 40.588 675.711 40.1676 676.261 37.0217C676.811 34.0063 678.867 33.6003 681.603 33.6003H684.614C684.643 11.5067 694.212 2.04 707.762 2.04C718.156 2.04 723.903 8.89716 723.903 16.5662C723.903 21.2198 720.762 23.8292 717.331 23.8292C713.9 23.8292 712.134 21.4952 711.178 18.6248C709.803 13.4203 707.762 9.99895 703.376 9.99895C699.264 9.99895 695.573 13.5653 695.573 21.7851H695.587Z" fill="#000423"/>
<path d="M767.016 87.9649C764.96 93.3144 758.402 100.708 747.458 100.708C735.689 100.708 729.536 93.4449 729.536 80.1509V74.526C729.536 60.4058 729.667 48.7646 730.086 40.9506H725.57C722.428 40.9506 721.328 39.9938 721.328 37.9352C721.328 36.5579 721.733 35.4707 722.964 34.0934C728.031 28.6135 733.908 23.8149 738.975 20.3936C741.436 18.7554 742.391 18.7554 743.347 18.7554C745.127 18.7554 745.952 20.2631 745.808 22.3217C745.533 25.6126 745.402 29.0339 745.258 33.557H758.938C761.268 33.557 763.31 33.963 762.629 37.6597C761.949 41.5015 759.618 41.9074 757.012 41.7769L745.113 41.371C744.983 48.9095 744.983 59.188 744.707 74.526C744.577 85.2105 746.343 89.6031 753.191 89.6031C756.752 89.6031 760.718 87.5445 763.31 85.3554C765.64 83.4418 767.956 85.3554 767.001 87.9649H767.016Z" fill="#000423"/>
<defs>
<linearGradient id="paint0_linear_4_419" x1="61.7563" y1="61.3175" x2="76.0749" y2="73.2697" gradientUnits="userSpaceOnUse">
<stop stop-color="#016189"/>
<stop offset="0.671875" stop-color="#03899F"/>
</linearGradient>
<linearGradient id="paint1_linear_4_419" x1="108.996" y1="86.9138" x2="109.061" y2="86.9138" gradientUnits="userSpaceOnUse">
<stop offset="0.0147783" stop-color="#09FFC4"/>
<stop offset="0.0886699" stop-color="#09FFC4"/>
<stop offset="0.2906" stop-color="#09FCC3"/>
<stop offset="0.4163" stop-color="#08F4C0"/>
<stop offset="0.5211" stop-color="#08E5BB"/>
<stop offset="0.6144" stop-color="#07D1B3"/>
<stop offset="0.6993" stop-color="#05B6AA"/>
<stop offset="0.7192" stop-color="#05AFA7"/>
<stop offset="0.7587" stop-color="#049DA1"/>
<stop offset="0.8353" stop-color="#038196"/>
<stop offset="0.902" stop-color="#026F90"/>
<stop offset="0.9507" stop-color="#02698E"/>
</linearGradient>
<linearGradient id="paint2_linear_4_419" x1="84.7679" y1="57.7227" x2="135.226" y2="28.562" gradientUnits="userSpaceOnUse">
<stop stop-color="#015B86"/>
<stop offset="0.1496" stop-color="#027393"/>
<stop offset="0.424" stop-color="#0398A8"/>
<stop offset="0.6449" stop-color="#04AFB4"/>
<stop offset="0.7833" stop-color="#04B8B9"/>
</linearGradient>
<linearGradient id="paint3_linear_4_419" x1="7.56962" y1="42.529" x2="113.973" y2="114.784" gradientUnits="userSpaceOnUse">
<stop offset="0.106826" stop-color="#00DBA7"/>
<stop offset="0.556407" stop-color="#00DBA7"/>
<stop offset="1" stop-color="#02698E"/>
</linearGradient>
<linearGradient id="paint4_linear_4_419" x1="65.1443" y1="19.3582" x2="65.1443" y2="100.93" gradientUnits="userSpaceOnUse">
<stop stop-color="#09FFC4"/>
<stop offset="0.4335" stop-color="#09FFC4" stop-opacity="0"/>
</linearGradient>
</defs>
</svg>
