<svg width="2232" height="1013" viewBox="0 0 2232 1013" fill="none" xmlns="http://www.w3.org/2000/svg">
<rect width="2232" height="1013" fill="#667085"/>
<path d="M364.168 544.7L347.718 514.509C301.527 609.045 276.278 621.369 255.553 624.527C286.687 623.753 345.054 570.029 364.168 544.7Z" fill="url(#paint0_linear_3007_417)"/>
<path d="M449.423 594.056C449.516 594.025 449.578 594.025 449.578 594.025C449.578 594.025 449.547 594.056 449.423 594.056Z" fill="url(#paint1_linear_3007_417)"/>
<path d="M386.597 516.177L377.025 497.846L369.651 483.323C372.316 480.846 391.802 453.875 416.71 427.741C427.274 417.832 439.108 407.49 452.925 402.504C456.581 401.173 460.546 400.213 464.481 400.337C476.532 400.709 487.158 408.945 493.478 418.699C499.922 428.608 502.741 440.56 503.794 452.203C506.861 485.8 500.944 525.652 498.435 546.801C498.249 530.018 499.519 513.266 500.2 496.483C500.696 484.19 500.603 471.68 497.505 459.697C495.956 453.659 493.85 447.651 490.411 442.418C486.693 436.721 481.922 432.757 475.2 431.147C453.018 425.883 414.015 482.518 386.597 516.177Z" fill="url(#paint2_linear_3007_417)"/>
<path d="M500.913 481.958C500.541 473.566 499.55 465.144 497.195 457.062C494.128 446.565 488.49 433.714 476.563 431.237C471.265 430.122 465.72 431.423 461.042 433.993C460.67 434.21 463.148 443.871 463.334 444.707C464.666 451.024 465.503 457.403 466.061 463.843C466.773 472.173 467.052 480.595 467.114 488.987C467.083 489.451 467.052 489.916 467.052 490.38C467.269 538.933 462.25 568.226 455.373 584.731C452.306 592.069 449.827 593.772 449.424 594.02C448.991 594.02 447.752 593.865 445.273 592.534C441.091 590.273 435.669 585.783 429.257 578.754C422.999 571.88 416.524 563.334 410.08 553.858C397.161 534.939 385.172 513.294 376.281 496.202C371.882 487.686 368.288 480.41 365.81 475.238C364.571 472.668 363.61 470.625 362.96 469.231C362.65 468.55 362.402 468.024 362.247 467.652L362.061 467.28L361.999 467.157L345.177 430.061L330.648 468.147V468.178L330.586 468.302C330.555 468.426 330.462 468.612 330.369 468.86C330.183 469.355 329.873 470.098 329.501 471.058C328.727 472.978 327.581 475.827 326.125 479.326C323.182 486.386 318.906 496.171 313.702 507.132C303.107 529.396 289.197 555.159 274.76 572.747C267.449 581.665 261.129 587.053 256.265 589.437C252.3 591.388 250.751 590.831 249.171 589.809C246.104 587.827 240.558 581.789 234.579 565.966C228.755 550.576 223.303 528.065 218.841 496.326C217.54 487.036 208.928 480.564 199.634 481.865C190.34 483.165 183.865 491.774 185.166 501.063C189.813 534.041 195.699 559.308 202.763 578.011C209.671 596.25 218.532 610.524 230.738 618.389C244.4 627.214 258.96 626.007 271.197 620C282.536 614.457 292.573 604.672 301.062 594.33C318.225 573.428 333.591 544.538 344.434 521.748C345.549 519.394 346.633 517.103 347.656 514.874C356.671 532.059 368.722 553.642 381.919 573.026C388.89 583.306 396.387 593.246 404.07 601.668C411.598 609.967 420.056 617.646 429.133 622.508C438.334 627.462 450.261 630.559 462.436 625.45C474.115 620.588 481.674 609.936 486.724 597.829C496.08 575.441 501.068 541.658 501.068 493.601C501.099 489.73 501.068 485.828 500.913 481.958Z" fill="url(#paint3_linear_3007_417)"/>
<path d="M500.913 481.958C500.541 473.566 499.55 465.144 497.195 457.062C494.128 446.565 488.49 433.714 476.563 431.237C471.265 430.122 465.72 431.423 461.042 433.993C460.67 434.21 463.148 443.871 463.334 444.707C464.667 451.024 465.503 457.403 466.061 463.843C466.773 472.173 467.052 480.595 467.114 488.987C467.083 489.451 467.052 489.916 467.052 490.38C467.269 538.933 462.25 568.226 455.373 584.731C452.306 592.069 449.827 593.772 449.424 594.02C448.991 594.02 447.751 593.865 445.273 592.534C441.091 590.273 435.669 585.783 429.257 578.754C422.999 571.88 416.524 563.334 410.08 553.858C397.161 534.939 385.172 513.294 376.281 496.202C371.882 487.686 368.288 480.41 365.81 475.238C364.571 472.668 363.61 470.625 362.96 469.231C362.65 468.55 362.402 468.024 362.247 467.652L362.061 467.28L361.999 467.157L345.177 430.061L330.648 468.147V468.178L330.586 468.302C330.555 468.426 330.462 468.612 330.369 468.86C330.183 469.355 329.873 470.098 329.501 471.058C328.727 472.978 327.581 475.827 326.125 479.326C323.182 486.386 318.906 496.171 313.702 507.132C303.107 529.396 289.197 555.159 274.76 572.747C267.449 581.665 261.129 587.053 256.265 589.437C252.3 591.388 250.751 590.831 249.171 589.809C246.104 587.827 240.558 581.789 234.579 565.966C228.755 550.576 223.303 528.065 218.841 496.326C217.54 487.036 208.928 480.564 199.634 481.865C190.34 483.165 183.865 491.774 185.166 501.063C189.813 534.041 195.699 559.308 202.763 578.011C209.671 596.25 218.532 610.524 230.738 618.389C244.4 627.214 258.96 626.007 271.197 620C282.536 614.457 292.573 604.672 301.062 594.33C318.225 573.428 333.591 544.538 344.434 521.748C345.549 519.394 346.633 517.103 347.656 514.874C356.671 532.059 368.722 553.642 381.919 573.026C388.89 583.306 396.387 593.246 404.07 601.668C411.598 609.967 420.056 617.646 429.133 622.508C438.334 627.462 450.261 630.559 462.436 625.449C474.115 620.588 481.674 609.936 486.724 597.829C496.08 575.441 501.068 541.658 501.068 493.601C501.099 489.73 501.068 485.828 500.913 481.958Z" fill="url(#paint4_linear_3007_417)"/>
<path d="M522.804 547.349C522.804 497.453 561.049 458.218 614.22 458.218C659.911 458.218 692.431 492.491 692.431 537.039C692.431 586.583 655.169 624.516 602.385 624.516C557.01 624.516 522.804 594.571 522.804 547.349ZM654.853 556.674C654.853 516.771 632.166 477.536 600.699 477.536C573.622 477.536 560.733 501.147 560.733 528.77C560.733 570.01 583.069 605.585 614.887 605.585C640.946 605.585 654.853 584.296 654.853 556.709V556.674Z" fill="#000423"/>
<path d="M882.252 584.928C886.22 605.548 899.531 602.873 899.531 613.852C899.531 619.834 894.544 621.171 885.904 621.171H845.095C836.456 621.171 830.837 619.517 830.837 613.535C830.837 603.225 848.432 604.879 844.463 583.274L834.489 529.401C830.169 505.79 824.199 482.496 797.965 482.848C778.368 483.164 759.122 500.794 759.122 535.383V576.307C759.122 607.553 774.716 600.903 774.716 613.887C774.716 619.869 769.729 621.206 761.089 621.206H719.262C710.974 621.206 705.319 619.552 705.319 613.57C705.319 600.938 721.58 607.589 721.58 576.342V511.139C721.58 500.829 718.911 493.51 711.29 488.513C707.953 486.191 705.319 483.868 705.319 479.857C705.319 475.529 707.321 473.206 715.258 469.547C727.199 464.233 743.143 459.237 748.13 458.92C752.766 458.92 755.119 461.242 755.119 467.576L754.803 492.173C767.762 469.547 789.641 458.251 811.556 458.251C847.062 458.251 862.655 479.857 871.294 527.431L882.252 584.963V584.928Z" fill="#000423"/>
<path d="M1058.52 439.25L1058.2 574.265C1058.2 599.213 1077.8 592.563 1077.8 602.521C1077.8 606.497 1074.81 609.524 1068.18 613.148C1058.87 618.145 1043.28 624.126 1034.64 624.126C1026 624.126 1022.34 618.461 1022.03 605.829L1021.71 595.519C1010.76 611.494 992.177 624.795 965.627 624.443C924.466 623.775 896.933 591.859 896.933 548.93C896.933 494.072 939.076 458.146 980.236 458.146C995.513 458.146 1010.12 462.474 1021.05 470.109V439.496C1021.05 413.563 1004.78 417.539 1004.78 407.229C1004.78 403.253 1006.79 401.247 1014.76 397.587C1028.98 391.042 1046.58 385.377 1051.88 385.025C1056.52 384.709 1058.87 387.348 1058.87 393.682L1058.55 439.25H1058.52ZM1020.69 559.627V541.998C1020.03 528.345 1018.02 512.722 1012.05 501.743C1003.42 485.451 990.491 476.795 973.88 476.795C948.313 476.795 933.071 499.069 933.071 531.02C933.071 575.602 957.303 599.213 980.868 599.213C1004.43 599.213 1018.69 579.579 1020.69 559.627Z" fill="#000423"/>
<path d="M1233.48 581.622C1226.84 598.934 1200.61 624.516 1157.48 624.516C1110.67 624.516 1079.17 591.263 1079.17 546.68C1079.17 496.116 1116.67 458.218 1164.15 458.218C1202.33 458.218 1225.89 480.844 1231.2 509.1C1232.18 514.765 1230.53 519.727 1223.58 522.401C1188.74 537.039 1157.87 548.018 1121.03 560.967C1127.67 578.244 1144.59 597.21 1173.15 597.21C1194.39 597.21 1211.64 586.583 1223.61 574.268C1229.93 567.934 1236.89 572.614 1233.59 581.587L1233.48 581.622ZM1114.64 523.738C1114.64 531.726 1115.3 539.045 1116.95 544.358C1140.2 536.722 1162.75 529.051 1183.68 520.395C1188.98 518.389 1192.32 515.398 1190.63 508.079C1186.67 488.128 1169.07 475.144 1151.79 476.833C1127.24 478.17 1114.6 501.112 1114.6 523.738H1114.64Z" fill="#000423"/>
<path d="M1368.91 484.15C1368.91 494.776 1362.58 503.433 1354.3 503.433C1339.02 503.749 1340.04 487.809 1324.09 487.809C1310.82 487.809 1298.53 505.086 1298.53 531.724V576.307C1298.53 607.553 1314.12 600.903 1314.12 613.887C1314.12 619.869 1309.13 621.206 1300.49 621.206H1258.67C1250.38 621.206 1244.72 619.552 1244.72 613.57C1244.72 600.938 1260.98 607.589 1260.98 576.342V511.139C1260.98 500.829 1258.31 493.51 1250.69 488.513C1247.36 486.191 1244.72 483.868 1244.72 479.857C1244.72 475.529 1246.73 473.206 1254.66 469.547C1266.6 464.233 1282.55 459.237 1287.53 458.92C1292.17 458.92 1294.52 461.242 1294.52 467.576L1294.21 490.519C1305.83 470.567 1323.74 458.251 1341.34 458.251C1359.92 458.251 1368.87 470.215 1368.87 484.185L1368.91 484.15Z" fill="#000423"/>
<path d="M1367.25 546.681C1367.25 496.116 1405.08 458.535 1452.56 458.535C1493.72 458.535 1518.27 485.489 1518.27 512.76C1518.27 526.412 1509.98 533.38 1499.69 533.38C1487.75 533.38 1483.08 524.723 1480.09 514.413C1474.12 492.808 1463.48 477.185 1442.94 476.833C1418.04 476.833 1403.43 497.77 1403.43 526.729C1403.43 568.954 1426.99 597.245 1462.18 597.245C1483.43 597.245 1497.02 586.935 1508.64 575.64C1514.97 569.658 1522.27 573.634 1518.93 582.607C1511.95 600.236 1489.4 624.516 1445.92 624.516C1397.14 624.516 1367.25 588.941 1367.25 546.681Z" fill="#000423"/>
<path d="M1654.71 484.15C1654.71 494.776 1648.39 503.433 1640.1 503.433C1624.82 503.749 1625.84 487.809 1609.9 487.809C1596.62 487.809 1584.33 505.086 1584.33 531.724V576.307C1584.33 607.553 1599.92 600.903 1599.92 613.887C1599.92 619.869 1594.93 621.206 1586.3 621.206H1544.47C1536.18 621.206 1530.53 619.552 1530.53 613.57C1530.53 600.938 1546.79 607.589 1546.79 576.342V511.139C1546.79 500.829 1544.12 493.51 1536.5 488.513C1533.16 486.191 1530.53 483.868 1530.53 479.857C1530.53 475.529 1532.53 473.206 1540.46 469.547C1552.4 464.233 1568.35 459.237 1573.34 458.92C1577.97 458.92 1580.33 461.242 1580.33 467.576L1580.01 490.519C1591.63 470.567 1609.54 458.251 1627.14 458.251C1645.72 458.251 1654.67 470.215 1654.67 484.185L1654.71 484.15Z" fill="#000423"/>
<path d="M1825.99 602.876C1825.99 612.517 1810.39 623.496 1795.12 623.496C1779.84 623.496 1773.2 614.839 1769.55 598.231C1754.62 615.86 1731.73 624.164 1712.45 624.164C1673.6 624.164 1650.04 602.559 1650.04 574.268C1650.04 542.669 1678.24 520.043 1722.07 520.043C1733.34 520.043 1741.31 521.029 1753.25 523.386C1746.97 499.775 1741.31 482.146 1714.76 482.146C1697.84 482.146 1684.88 488.128 1671.95 495.447C1665.63 499.423 1659.34 494.462 1663.98 486.791C1672.27 474.159 1696.85 458.535 1727.72 458.535C1767.23 458.535 1780.51 484.469 1787.46 512.76L1803.41 580.285C1806.74 595.24 1812.71 598.231 1819.67 598.231C1823.32 597.914 1825.99 599.216 1825.99 602.876ZM1764.25 574.936C1763.26 568.286 1760.59 559.63 1757.29 546.681C1755.64 538.693 1738.36 535.702 1727.76 535.702C1701.21 535.702 1686.6 548.686 1686.95 568.954C1687.62 589.258 1701.87 604.529 1725.12 604.529C1746.02 604.529 1766.95 588.906 1764.28 574.936H1764.25Z" fill="#000423"/>
<path d="M1872.49 432.951C1872.49 444.246 1875.47 461.558 1883.09 461.558H1917.61C1923.58 461.558 1929.91 462.544 1928.22 471.517C1926.22 480.841 1920.6 481.827 1914.59 481.51L1883.06 480.525V576.306C1883.06 610.895 1905.29 600.585 1905.29 613.886C1905.29 619.868 1900.3 621.205 1891.66 621.205H1843.86C1835.22 621.205 1829.6 619.552 1829.6 613.57C1829.6 602.274 1845.86 607.904 1845.86 576.341V479.223L1836.56 478.906C1830.24 478.589 1824.27 477.569 1825.6 469.933C1826.94 462.614 1831.92 461.629 1838.56 461.629H1845.86C1845.93 408.003 1869.15 385.025 1902.02 385.025C1927.24 385.025 1941.18 401.669 1941.18 420.283C1941.18 431.578 1933.56 437.912 1925.23 437.912C1916.91 437.912 1912.63 432.247 1910.31 425.28C1906.97 412.647 1902.02 404.343 1891.38 404.343C1881.41 404.343 1872.45 412.999 1872.45 432.951H1872.49Z" fill="#000423"/>
<path d="M2045.77 593.584C2040.78 606.568 2024.87 624.514 1998.32 624.514C1969.77 624.514 1954.84 606.885 1954.84 574.618V560.965C1954.84 526.692 1955.16 498.436 1956.18 479.47H1945.22C1937.6 479.47 1934.93 477.147 1934.93 472.151C1934.93 468.808 1935.91 466.169 1938.9 462.826C1951.19 449.525 1965.45 437.878 1977.74 429.573C1983.71 425.597 1986.03 425.597 1988.35 425.597C1992.67 425.597 1994.67 429.257 1994.32 434.253C1993.65 442.241 1993.33 450.545 1992.98 461.524H2026.17C2031.83 461.524 2036.78 462.509 2035.13 471.482C2033.48 480.807 2027.82 481.792 2021.5 481.475L1992.63 480.49C1992.32 498.788 1992.32 523.736 1991.65 560.965C1991.33 586.898 1995.62 597.56 2012.23 597.56C2020.87 597.56 2030.49 592.563 2036.78 587.25C2042.43 582.605 2048.05 587.25 2045.73 593.584H2045.77Z" fill="#000423"/>
<defs>
<linearGradient id="paint0_linear_3007_417" x1="334.82" y1="531.915" x2="369.571" y2="560.908" gradientUnits="userSpaceOnUse">
<stop stop-color="#016189"/>
<stop offset="0.671875" stop-color="#03899F"/>
</linearGradient>
<linearGradient id="paint1_linear_3007_417" x1="449.423" y1="594.043" x2="449.583" y2="594.043" gradientUnits="userSpaceOnUse">
<stop offset="0.0147783" stop-color="#09FFC4"/>
<stop offset="0.0886699" stop-color="#09FFC4"/>
<stop offset="0.2906" stop-color="#09FCC3"/>
<stop offset="0.4163" stop-color="#08F4C0"/>
<stop offset="0.5211" stop-color="#08E5BB"/>
<stop offset="0.6144" stop-color="#07D1B3"/>
<stop offset="0.6993" stop-color="#05B6AA"/>
<stop offset="0.7192" stop-color="#05AFA7"/>
<stop offset="0.7587" stop-color="#049DA1"/>
<stop offset="0.8353" stop-color="#038196"/>
<stop offset="0.902" stop-color="#026F90"/>
<stop offset="0.9507" stop-color="#02698E"/>
</linearGradient>
<linearGradient id="paint2_linear_3007_417" x1="390.647" y1="523.189" x2="513.089" y2="452.464" gradientUnits="userSpaceOnUse">
<stop stop-color="#015B86"/>
<stop offset="0.1496" stop-color="#027393"/>
<stop offset="0.424" stop-color="#0398A8"/>
<stop offset="0.6449" stop-color="#04AFB4"/>
<stop offset="0.7833" stop-color="#04B8B9"/>
</linearGradient>
<linearGradient id="paint3_linear_3007_417" x1="203.364" y1="486.311" x2="461.58" y2="661.568" gradientUnits="userSpaceOnUse">
<stop offset="0.106826" stop-color="#00DBA7"/>
<stop offset="0.556407" stop-color="#00DBA7"/>
<stop offset="1" stop-color="#02698E"/>
</linearGradient>
<linearGradient id="paint4_linear_3007_417" x1="343.04" y1="430.07" x2="343.04" y2="628.064" gradientUnits="userSpaceOnUse">
<stop stop-color="#09FFC4"/>
<stop offset="0.4335" stop-color="#09FFC4" stop-opacity="0"/>
</linearGradient>
</defs>
</svg>
