<svg width="2232" height="1013" viewBox="0 0 2232 1013" fill="none" xmlns="http://www.w3.org/2000/svg">
<rect width="2232" height="1013" fill="#000423"/>
<path d="M417.473 541.521L402.189 513.48C359.273 601.278 335.812 612.72 316.555 615.653C345.484 614.935 399.712 565.041 417.473 541.521Z" fill="url(#paint0_linear_2647_367)"/>
<path d="M496.688 587.351C496.771 587.323 496.83 587.323 496.83 587.323C496.83 587.323 496.803 587.351 496.688 587.351Z" fill="url(#paint1_linear_2647_367)"/>
<path d="M438.312 515.029L429.418 498.006L422.567 484.516C425.044 482.218 443.146 457.17 466.289 432.9C476.109 423.7 487.103 414.095 499.942 409.463C503.336 408.229 507.023 407.336 510.678 407.451C521.874 407.796 531.749 415.444 537.619 424.501C543.608 433.705 546.228 444.807 547.204 455.618C550.054 486.818 544.557 523.828 542.223 543.467C542.053 527.881 543.231 512.326 543.866 496.74C544.327 485.322 544.24 473.705 541.362 462.576C539.921 456.967 537.965 451.391 534.77 446.529C531.317 441.239 526.883 437.559 520.636 436.063C500.025 431.173 463.785 483.77 438.312 515.029Z" fill="url(#paint2_linear_2647_367)"/>
<path d="M544.531 483.248C544.186 475.453 543.265 467.634 541.074 460.129C538.224 450.377 532.985 438.447 521.904 436.145C516.982 435.109 511.831 436.315 507.485 438.705C507.139 438.907 509.441 447.877 509.612 448.655C510.85 454.521 511.628 460.443 512.148 466.424C512.807 474.159 513.069 481.982 513.125 489.777C513.097 490.206 513.069 490.638 513.069 491.071C513.267 536.158 508.608 563.361 502.214 578.69C499.364 585.504 497.062 587.088 496.689 587.318C496.284 587.318 495.133 587.175 492.831 585.937C488.946 583.837 483.909 579.67 477.952 573.141C472.137 566.755 466.12 558.821 460.131 550.022C448.129 532.451 436.988 512.349 428.729 496.477C424.641 488.567 421.303 481.811 419.001 477.009C417.846 474.62 416.957 472.723 416.35 471.429C416.064 470.798 415.834 470.305 415.691 469.964L415.516 469.619L415.457 469.504L399.827 435.053L386.329 470.421V470.452L386.269 470.567C386.241 470.683 386.154 470.853 386.071 471.083C385.896 471.544 385.61 472.234 385.265 473.127C384.542 474.909 383.479 477.553 382.125 480.803C379.391 487.36 375.418 496.449 370.584 506.625C360.737 527.303 347.814 551.228 334.403 567.561C327.608 575.844 321.734 580.849 317.217 583.063C313.53 584.873 312.093 584.357 310.625 583.405C307.775 581.567 302.623 575.959 297.067 561.266C291.657 546.974 286.589 526.065 282.445 496.592C281.235 487.963 273.233 481.954 264.597 483.161C255.96 484.367 249.947 492.365 251.154 500.989C255.472 531.618 260.941 555.082 267.506 572.45C273.924 589.386 282.155 602.646 293.499 609.949C306.191 618.145 319.722 617.022 331.089 611.445C341.626 606.298 350.953 597.209 358.84 587.604C374.787 568.196 389.063 541.366 399.136 520.199C400.172 518.016 401.18 515.885 402.133 513.817C410.507 529.776 421.704 549.819 433.968 567.819C440.445 577.368 447.411 586.6 454.547 594.418C461.544 602.126 469.403 609.258 477.837 613.775C486.386 618.375 497.467 621.249 508.779 616.506C519.63 611.989 526.655 602.098 531.346 590.854C540.038 570.065 544.674 538.69 544.674 494.06C544.702 490.464 544.674 486.844 544.531 483.248Z" fill="url(#paint3_linear_2647_367)"/>
<path d="M544.531 483.248C544.186 475.453 543.265 467.634 541.074 460.129C538.224 450.377 532.985 438.447 521.904 436.145C516.982 435.109 511.831 436.315 507.485 438.705C507.139 438.907 509.441 447.877 509.612 448.655C510.85 454.521 511.628 460.443 512.148 466.424C512.807 474.159 513.069 481.982 513.125 489.777C513.097 490.206 513.069 490.638 513.069 491.071C513.267 536.158 508.608 563.361 502.214 578.69C499.368 585.504 497.062 587.088 496.689 587.318C496.284 587.318 495.133 587.175 492.831 585.937C488.946 583.837 483.909 579.67 477.952 573.141C472.137 566.755 466.12 558.821 460.131 550.022C448.129 532.451 436.988 512.349 428.729 496.477C424.641 488.567 421.303 481.811 419.001 477.009C417.846 474.62 416.957 472.723 416.35 471.429C416.064 470.798 415.834 470.305 415.691 469.964L415.516 469.619L415.457 469.504L399.827 435.053L386.329 470.421V470.452L386.269 470.567C386.241 470.683 386.154 470.853 386.071 471.083C385.896 471.544 385.61 472.234 385.265 473.127C384.542 474.909 383.479 477.553 382.125 480.803C379.391 487.36 375.418 496.449 370.584 506.625C360.737 527.303 347.814 551.228 334.403 567.561C327.608 575.844 321.734 580.849 317.217 583.063C313.53 584.873 312.093 584.357 310.625 583.405C307.775 581.567 302.623 575.959 297.067 561.266C291.657 546.974 286.589 526.065 282.445 496.592C281.235 487.963 273.233 481.954 264.597 483.161C255.96 484.367 249.947 492.365 251.154 500.989C255.472 531.618 260.941 555.082 267.506 572.45C273.924 589.386 282.155 602.646 293.499 609.949C306.191 618.145 319.722 617.022 331.089 611.445C341.626 606.298 350.953 597.209 358.84 587.604C374.787 568.196 389.063 541.366 399.136 520.199C400.172 518.016 401.18 515.885 402.133 513.817C410.507 529.776 421.704 549.819 433.968 567.819C440.445 577.368 447.411 586.6 454.547 594.418C461.544 602.126 469.403 609.258 477.837 613.775C486.386 618.375 497.467 621.249 508.779 616.506C519.63 611.989 526.655 602.098 531.346 590.854C540.038 570.065 544.674 538.69 544.674 494.06C544.702 490.464 544.674 486.844 544.531 483.248Z" fill="url(#paint4_linear_2647_367)"/>
<path d="M564.869 546.771C564.869 500.433 600.407 463.999 649.809 463.999C692.264 463.999 722.48 495.826 722.48 537.198C722.48 583.206 687.859 618.434 638.815 618.434C596.653 618.434 564.869 590.624 564.869 546.771ZM687.565 555.431C687.565 518.373 666.482 481.938 637.247 481.938C612.088 481.938 600.113 503.867 600.113 529.518C600.113 567.818 620.867 600.856 650.428 600.856C674.642 600.856 687.565 581.083 687.565 555.463V555.431Z" fill="white"/>
<path d="M898.852 581.669C902.539 600.819 914.906 598.335 914.906 608.531C914.906 614.087 910.275 615.33 902.245 615.33H864.33C856.301 615.33 851.082 613.794 851.082 608.237C851.082 598.66 867.43 600.196 863.743 580.133L854.475 530.104C850.462 508.176 844.914 486.545 820.541 486.871C802.331 487.164 784.447 503.536 784.447 535.657V573.664C784.447 602.681 798.938 596.505 798.938 608.563C798.938 614.119 794.302 615.361 786.277 615.361H747.413C739.713 615.361 734.458 613.825 734.458 608.269C734.458 596.537 749.568 602.712 749.568 573.695V513.145C749.568 503.568 747.087 496.773 740.007 492.129C736.907 489.974 734.458 487.819 734.458 484.092C734.458 480.072 736.319 477.917 743.694 474.519C754.787 469.582 769.603 464.942 774.235 464.648C778.541 464.648 780.728 466.808 780.728 472.69L780.434 495.531C792.476 474.519 812.805 464.029 833.166 464.029C866.156 464.029 880.646 484.092 888.672 528.275L898.852 581.701V581.669Z" fill="white"/>
<path d="M1062.63 446.378L1062.33 571.765C1062.33 594.935 1080.54 588.76 1080.54 598.007C1080.54 601.698 1077.77 604.508 1071.6 607.874C1062.95 612.514 1048.47 618.07 1040.44 618.07C1032.41 618.07 1029.02 612.808 1028.73 601.079L1028.43 591.502C1018.25 606.338 1000.99 618.69 976.32 618.364C938.075 617.745 912.491 588.105 912.491 548.237C912.491 497.291 951.649 463.928 989.894 463.928C1004.09 463.928 1017.66 467.949 1027.81 475.037V446.608C1027.81 422.524 1012.7 426.215 1012.7 416.642C1012.7 412.951 1014.56 411.086 1021.97 407.688C1035.19 401.612 1051.54 396.349 1056.46 396.023C1060.77 395.73 1062.95 398.179 1062.95 404.061L1062.66 446.378H1062.63ZM1027.48 558.171V541.799C1026.86 529.122 1025 514.612 1019.46 504.415C1011.43 489.286 999.423 481.249 983.988 481.249C960.234 481.249 946.069 501.931 946.069 531.603C946.069 573.007 968.584 594.935 990.481 594.935C1012.38 594.935 1025.63 576.698 1027.48 558.171Z" fill="white"/>
<path d="M1225.2 578.602C1219.03 594.676 1194.66 618.434 1154.59 618.434C1111.09 618.434 1081.81 587.556 1081.81 546.152C1081.81 499.191 1116.67 463.999 1160.78 463.999C1196.26 463.999 1218.15 485.01 1223.08 511.249C1223.99 516.512 1222.46 521.12 1216 523.604C1183.63 537.198 1154.94 547.394 1120.71 559.42C1126.88 575.462 1142.61 593.077 1169.14 593.077C1188.88 593.077 1204.9 583.206 1216.03 571.771C1221.9 565.889 1228.36 570.235 1225.3 578.566L1225.2 578.602ZM1114.77 524.846C1114.77 532.264 1115.39 539.059 1116.93 543.993C1138.53 536.904 1159.48 529.78 1178.93 521.739C1183.85 519.877 1186.95 517.099 1185.39 510.304C1181.7 491.773 1165.35 479.716 1149.3 481.283C1126.49 482.526 1114.74 503.831 1114.74 524.846H1114.77Z" fill="white"/>
<path d="M1351.02 488.082C1351.02 497.948 1345.15 505.986 1337.45 505.986C1323.25 506.283 1324.2 491.479 1309.39 491.479C1297.05 491.479 1285.63 507.522 1285.63 532.26V573.664C1285.63 602.681 1300.12 596.505 1300.12 608.563C1300.12 614.12 1295.49 615.362 1287.46 615.362H1248.59C1240.89 615.362 1235.64 613.826 1235.64 608.269C1235.64 596.537 1250.75 602.713 1250.75 573.696V513.146C1250.75 503.568 1248.27 496.774 1241.19 492.13C1238.09 489.975 1235.64 487.82 1235.64 484.093C1235.64 480.072 1237.5 477.917 1244.87 474.52C1255.97 469.582 1270.78 464.943 1275.42 464.649C1279.73 464.649 1281.91 466.808 1281.91 472.69L1281.62 493.995C1292.42 475.464 1309.06 464.03 1325.41 464.03C1342.67 464.03 1350.99 475.139 1350.99 488.113L1351.02 488.082Z" fill="white"/>
<path d="M1349.48 546.153C1349.48 499.192 1384.63 464.293 1428.74 464.293C1466.99 464.293 1489.8 489.325 1489.8 514.651C1489.8 527.328 1482.1 533.797 1472.54 533.797C1461.44 533.797 1457.1 525.76 1454.33 516.187C1448.78 496.12 1438.89 481.613 1419.8 481.284C1396.67 481.284 1383.09 500.728 1383.09 527.622C1383.09 566.835 1404.99 593.109 1437.69 593.109C1457.43 593.109 1470.06 583.536 1480.86 573.046C1486.73 567.49 1493.52 571.181 1490.42 579.516C1483.92 595.887 1462.98 618.435 1422.58 618.435C1377.25 618.435 1349.48 585.398 1349.48 546.153Z" fill="white"/>
<path d="M1616.58 488.081C1616.58 497.948 1610.7 505.985 1603 505.985C1588.81 506.283 1589.75 491.479 1574.94 491.479C1562.61 491.479 1551.18 507.521 1551.18 532.259V573.664C1551.18 602.681 1565.67 596.505 1565.67 608.563C1565.67 614.119 1561.04 615.361 1553.01 615.361H1514.15C1506.45 615.361 1501.19 613.825 1501.19 608.269C1501.19 596.537 1516.3 602.712 1516.3 573.695V513.145C1516.3 503.568 1513.82 496.773 1506.74 492.129C1503.64 489.974 1501.19 487.819 1501.19 484.092C1501.19 480.072 1503.05 477.917 1510.43 474.519C1521.52 469.582 1536.34 464.942 1540.97 464.648C1545.28 464.648 1547.46 466.808 1547.46 472.69L1547.17 493.995C1557.97 475.464 1574.61 464.029 1590.96 464.029C1608.22 464.029 1616.54 475.138 1616.54 488.113L1616.58 488.081Z" fill="white"/>
<path d="M1775.72 598.336C1775.72 607.29 1761.23 617.486 1747.04 617.486C1732.84 617.486 1726.67 609.449 1723.28 594.026C1709.41 610.398 1688.14 618.11 1670.22 618.11C1634.13 618.11 1612.24 598.043 1612.24 571.772C1612.24 542.426 1638.44 521.414 1679.17 521.414C1689.64 521.414 1697.05 522.327 1708.14 524.518C1702.3 502.589 1697.05 486.221 1672.37 486.221C1656.65 486.221 1644.61 491.774 1632.6 498.573C1626.72 502.264 1620.89 497.656 1625.19 490.532C1632.89 478.803 1655.73 464.293 1684.42 464.293C1721.13 464.293 1733.46 488.377 1739.92 514.651L1754.74 577.36C1757.84 591.248 1763.39 594.026 1769.84 594.026C1773.24 593.732 1775.72 594.939 1775.72 598.336ZM1718.36 572.391C1717.44 566.216 1714.96 558.178 1711.89 546.153C1710.36 538.735 1694.3 535.956 1684.45 535.956C1659.78 535.956 1646.21 548.014 1646.53 566.835C1647.15 585.691 1660.4 599.872 1682 599.872C1701.42 599.872 1720.87 585.366 1718.39 572.391H1718.36Z" fill="white"/>
<path d="M1818.92 440.538C1818.92 451.028 1821.69 467.102 1828.78 467.102H1860.85C1866.4 467.102 1872.27 468.019 1870.71 476.349C1868.85 485.01 1863.63 485.927 1858.05 485.633L1828.74 484.716V573.668C1828.74 605.789 1849.4 596.216 1849.4 608.567C1849.4 614.124 1844.77 615.362 1836.74 615.362H1792.33C1784.3 615.362 1779.08 613.83 1779.08 608.273C1779.08 597.783 1794.19 603.01 1794.19 573.7V483.509L1785.54 483.212C1779.67 482.918 1774.12 481.973 1775.36 474.881C1776.6 468.082 1781.23 467.169 1787.4 467.169H1794.19C1794.25 417.367 1815.82 396.03 1846.36 396.03C1869.79 396.03 1882.75 411.485 1882.75 428.774C1882.75 439.264 1875.67 445.146 1867.94 445.146C1860.2 445.146 1856.22 439.883 1854.06 433.413C1850.96 421.681 1846.36 413.969 1836.48 413.969C1827.21 413.969 1818.89 422.007 1818.89 440.538H1818.92Z" fill="white"/>
<path d="M1979.93 589.709C1975.29 601.766 1960.51 618.432 1935.84 618.432C1909.31 618.432 1895.44 602.06 1895.44 572.094V559.418C1895.44 527.591 1895.74 501.348 1896.68 483.734H1886.5C1879.42 483.734 1876.94 481.579 1876.94 476.939C1876.94 473.835 1877.86 471.382 1880.63 468.279C1892.05 455.927 1905.3 445.108 1916.72 437.396C1922.26 433.705 1924.42 433.705 1926.57 433.705C1930.59 433.705 1932.45 437.103 1932.12 441.742C1931.5 449.16 1931.21 456.872 1930.88 467.068H1961.72C1966.97 467.068 1971.57 467.985 1970.04 476.316C1968.5 484.976 1963.25 485.893 1957.38 485.599L1930.56 484.682C1930.26 501.673 1930.26 524.844 1929.64 559.418C1929.35 583.501 1933.33 593.404 1948.76 593.404C1956.79 593.404 1965.73 588.76 1971.57 583.827C1976.83 579.512 1982.05 583.827 1979.89 589.709H1979.93Z" fill="white"/>
<defs>
<linearGradient id="paint0_linear_2647_367" x1="390.207" y1="529.646" x2="422.482" y2="556.587" gradientUnits="userSpaceOnUse">
<stop stop-color="#016189"/>
<stop offset="0.67" stop-color="#03899F"/>
<stop offset="1" stop-color="#03899F"/>
</linearGradient>
<linearGradient id="paint1_linear_2647_367" x1="496.688" y1="587.339" x2="496.834" y2="587.339" gradientUnits="userSpaceOnUse">
<stop stop-color="#09FFC4"/>
<stop offset="0.09" stop-color="#09FFC4"/>
<stop offset="0.29" stop-color="#09FCC3"/>
<stop offset="0.42" stop-color="#08F4C0"/>
<stop offset="0.52" stop-color="#08E5BB"/>
<stop offset="0.61" stop-color="#07D1B3"/>
<stop offset="0.7" stop-color="#05B6AA"/>
<stop offset="0.72" stop-color="#05AFA7"/>
<stop offset="0.76" stop-color="#049DA1"/>
<stop offset="0.84" stop-color="#038196"/>
<stop offset="0.9" stop-color="#026F90"/>
<stop offset="0.95" stop-color="#02698E"/>
<stop offset="1" stop-color="#02698E"/>
</linearGradient>
<linearGradient id="paint2_linear_2647_367" x1="442.075" y1="521.542" x2="555.813" y2="455.809" gradientUnits="userSpaceOnUse">
<stop stop-color="#015B86"/>
<stop offset="0.15" stop-color="#027393"/>
<stop offset="0.42" stop-color="#0398A8"/>
<stop offset="0.64" stop-color="#04AFB4"/>
<stop offset="0.78" stop-color="#04B8B9"/>
<stop offset="1" stop-color="#04B8B9"/>
</linearGradient>
<linearGradient id="paint3_linear_2647_367" x1="268.063" y1="487.289" x2="507.905" y2="650.158" gradientUnits="userSpaceOnUse">
<stop stop-color="#00DBA7"/>
<stop offset="0.56" stop-color="#00DBA7"/>
<stop offset="1" stop-color="#02698E"/>
</linearGradient>
<linearGradient id="paint4_linear_2647_367" x1="397.842" y1="435.061" x2="397.842" y2="618.935" gradientUnits="userSpaceOnUse">
<stop stop-color="#09FFC4"/>
<stop offset="0.43" stop-color="#09FFC4" stop-opacity="0"/>
<stop offset="1" stop-color="#09FFC4" stop-opacity="0"/>
</linearGradient>
</defs>
</svg>
